<svg width="130" height="130" viewBox="0 0 130 130" fill="none" xmlns="http://www.w3.org/2000/svg">
<path d="M130 65C130 100.899 100.899 130 65 130C29.101 130 0 100.899 0 65C0 29.101 29.101 0 65 0C100.899 0 130 29.101 130 65Z" fill="#9C56B8"/>
<path d="M130 65C130 60.5229 129.547 56.153 128.685 51.9308L96.0836 19.3286L86.8458 59.6997L46.679 19.5329L35.8662 112.808L51.6927 128.634C55.9883 129.528 60.4386 130 65 130C100.899 130 130 100.899 130 65Z" fill="#8C4DA5"/>
<path d="M76.2006 32.7222C75.4657 32.7222 74.7575 32.8313 74.0851 33.0247C72.5358 30.313 69.6189 28.4841 66.2725 28.4841C62.9727 28.4841 60.0895 30.2625 58.5254 32.9116C57.9838 32.7906 57.4245 32.7222 56.8472 32.7222C52.6141 32.7222 49.1834 36.1529 49.1834 40.385C49.1834 44.6171 52.6141 48.0478 56.8472 48.0478C57.8956 48.0478 58.8914 47.8296 59.8009 47.4468L63.1661 63.9378H69.8807L73.245 47.4517C74.1545 47.8336 75.1513 48.0478 76.2006 48.0478C80.4327 48.0478 83.8634 44.6171 83.8634 40.385C83.8634 36.1529 80.4327 32.7222 76.2006 32.7222Z" fill="#4BBC56"/>
<path d="M76.2006 32.7222C75.4657 32.7222 74.7575 32.8313 74.0851 33.0247C72.5359 30.313 69.6189 28.4841 66.2725 28.4841C65.8044 28.4841 65.3461 28.5238 64.8969 28.5922V63.9388H69.8808L73.245 47.4517C74.1545 47.8346 75.1513 48.0478 76.1996 48.0478C80.4317 48.0478 83.8625 44.6171 83.8625 40.385C83.8625 36.1529 80.4327 32.7222 76.2006 32.7222V32.7222Z" fill="#3F9E46"/>
<path d="M80.0667 24.7966L92.4972 26.3736L86.5999 72.8424L74.1694 71.2654L80.0667 24.7966Z" fill="#92E54A"/>
<path d="M90.1873 65.7994L77.7558 64.2224L83.1731 21.5305L96.0837 19.3286L90.1873 65.7994Z" fill="#86D641"/>
<path d="M39.3317 20.7459L46.6801 19.5349L54.3012 65.7548L46.9528 66.9668L39.3317 20.7459Z" fill="#4BBC56"/>
<path d="M58.5978 76.1857L46.2337 78.2239L35.6917 40.3433C34.5759 36.3323 37.1873 32.2401 41.2945 31.5627L48.2918 30.4082C52.3999 29.7308 56.1867 32.7687 56.4178 36.9254L58.5978 76.1857Z" fill="#FFA300"/>
<path d="M35.8662 46.55H94.1347V112.808H35.8662L35.8662 46.55Z" fill="#B46E5A"/>
<path d="M64.8969 46.55H94.1338V112.808H64.8969V46.55Z" fill="#915041"/>
</svg>
