<svg width="130" height="130" viewBox="0 0 130 130" fill="none" xmlns="http://www.w3.org/2000/svg">
<path d="M64.9366 129.873C100.8 129.873 129.873 100.8 129.873 64.9366C129.873 29.0731 100.8 0 64.9366 0C29.0731 0 0 29.0731 0 64.9366C0 100.8 29.0731 129.873 64.9366 129.873Z" fill="#9C56B8"/>
<path opacity="0.1" d="M129.586 70.9371L101.328 42.6787L100.855 42.2049L100.849 42.211C100.182 41.6516 99.3126 41.3288 98.3653 41.3932C97.6213 41.4474 96.9314 41.7314 96.3902 42.1642L86.5552 32.3292H86.5417C83.9848 29.5017 80.2779 27.7295 76.1655 27.7295C71.5658 27.7295 67.4938 29.9617 64.9368 33.3842C62.3799 29.9617 58.3079 27.7295 53.7082 27.7295C45.9563 27.7295 39.6793 34.0067 39.6793 41.7584C39.6793 45.3976 42.6286 50.3083 46.4842 55.2057L34.0788 42.8002L33.9842 42.6919C33.3889 41.9478 32.5095 41.4609 31.5083 41.3932C29.4521 41.2579 27.7339 42.8948 27.7339 44.9241L27.7473 76.6214C27.7473 78.1365 28.4644 79.5707 29.682 80.477L45.3208 92.382C46.0242 92.9094 46.4301 93.7484 46.4166 94.614L46.2678 102.136L73.4336 129.302C103.324 125.393 126.815 101.171 129.586 70.9371Z" fill="black"/>
<path d="M31.5073 41.3899C33.1896 41.4985 34.5409 42.8289 34.7869 44.4967L37.4339 62.4409C37.4601 62.6179 37.3277 62.7762 37.1493 62.7878C32.8916 63.0666 31.5741 65.6576 31.5741 65.6576C29.0283 70.5786 33.0255 73.357 33.0255 73.357L44.9607 80.2771C45.4942 80.591 46.2002 80.4795 46.5617 79.9769C46.9754 79.4009 46.7963 78.6106 46.1999 78.2621L34.7179 71.664C32.9872 70.6531 32.3565 68.3982 33.4224 66.7008C34.4386 65.0827 36.5416 64.5753 38.1764 65.5242L56.8084 76.2228C60.1128 78.1405 62.15 81.669 62.158 85.4898L62.196 102.106L46.2692 102.14L46.4118 94.6201C46.4258 93.7445 46.0205 92.9151 45.3214 92.3882L29.6767 80.4821C28.4629 79.5674 27.7492 78.136 27.7484 76.6165L27.7339 44.9229C27.7323 42.8904 29.445 41.257 31.5073 41.3899Z" fill="#FCD462"/>
<path d="M98.3659 41.3899C96.6835 41.4985 95.3323 42.8289 95.0863 44.4967L92.4392 62.4409C92.4131 62.6179 92.5455 62.7762 92.7238 62.7878C96.9816 63.0666 98.299 65.6576 98.299 65.6576C100.845 70.5786 96.8476 73.357 96.8476 73.357L84.9124 80.2771C84.379 80.591 83.673 80.4795 83.3115 79.9769C82.8977 79.4009 83.0769 78.6106 83.6732 78.2621L95.155 71.664C96.8857 70.6531 97.5164 68.3982 96.4505 66.7008C95.4343 65.0827 93.3313 64.5753 91.6965 65.5242L73.0645 76.2228C69.7601 78.1405 67.7229 81.669 67.7149 85.4898L67.6769 102.106L83.6037 102.14L83.461 94.6201C83.447 93.7445 83.8524 92.9151 84.5515 92.3882L100.196 80.4821C101.41 79.5674 102.124 78.136 102.125 76.6165L102.139 44.9229C102.141 42.8904 100.428 41.257 98.3659 41.3899Z" fill="#F6C358"/>
<path d="M53.7064 27.7334C45.9619 27.7334 39.6836 34.0117 39.6836 41.7562C39.6836 52.4178 64.9332 74.0263 64.9369 74.0295V33.3842C62.3797 29.9606 58.3082 27.7334 53.7064 27.7334Z" fill="#E56353"/>
<path d="M76.1671 27.7334C71.5647 27.7334 67.4935 29.9606 64.9366 33.3842V33.3842V74.0293V74.0295C64.9366 74.0295 90.1893 52.4186 90.1893 41.756C90.1896 34.0117 83.9116 27.7334 76.1671 27.7334Z" fill="#D15241"/>
</svg>
