<svg width="130" height="130" viewBox="0 0 130 130" fill="none" xmlns="http://www.w3.org/2000/svg">
<path d="M65 130C100.899 130 130 100.899 130 65C130 29.1015 100.899 0 65 0C29.1015 0 0 29.1015 0 65C0 100.899 29.1015 130 65 130Z" fill="#9C56B8"/>
<path d="M129.896 68.6589L78.6015 17.365L67.4121 31.7384L34.547 103.712L60.6894 129.854C62.1146 129.948 63.5512 130 65 130C99.6704 130 127.998 102.855 129.896 68.6589Z" fill="#8C4DA5"/>
<path d="M78.6015 17.365H51.3985C54.9349 28.9088 59.7254 35.9979 65 35.9979C70.2747 35.9979 75.0654 28.9088 78.6015 17.365Z" fill="#FFECB3"/>
<path d="M64.9878 17.365V35.9974C64.9919 35.9974 64.9959 35.9979 65 35.9979C70.2747 35.9979 75.0654 28.9088 78.6015 17.365H64.9878Z" fill="#FFD863"/>
<path d="M105.244 80.4884C105.244 58.2622 87.2262 33.5515 65 33.5515C42.7738 33.5515 24.7559 58.2622 24.7559 80.4884C24.7559 83.6939 25.1306 86.8119 25.8388 89.8009C28.5964 101.441 39.0815 109.603 51.0435 109.603H78.9562C90.9185 109.603 101.403 101.441 104.161 89.8009C104.869 86.8119 105.244 83.6939 105.244 80.4884Z" fill="#FFDC00"/>
<path d="M65 33.5515C64.9959 33.5515 64.9919 33.5518 64.9878 33.5518V109.603H78.9562C90.9185 109.603 101.403 101.441 104.161 89.8009C104.869 86.8119 105.244 83.6939 105.244 80.4884C105.244 58.2622 87.2262 33.5515 65 33.5515Z" fill="#FFC000"/>
<path d="M65 89.817C75.0742 89.817 83.2409 81.6502 83.2409 71.5761C83.2409 61.5019 75.0742 53.3352 65 53.3352C54.9258 53.3352 46.7591 61.5019 46.7591 71.5761C46.7591 81.6502 54.9258 89.817 65 89.817Z" fill="#FF6838"/>
<path d="M65 53.3364C64.9959 53.3364 64.9919 53.3367 64.9878 53.3367V89.8177C64.9919 89.8177 64.9959 89.8179 65 89.8179C75.0742 89.8179 83.2409 81.6513 83.2409 71.5771C83.2409 61.5028 75.0742 53.3364 65 53.3364Z" fill="#AE4E32"/>
<path d="M68.6318 72.7137C68.6318 73.5187 68.5093 74.1312 68.2643 74.5512C68.1126 74.8196 67.8793 75.0412 67.5643 75.2162C67.261 75.4029 66.9518 75.4962 66.6368 75.4962C66.1701 75.4962 65.4351 75.2804 64.4318 74.8487C63.6501 74.5104 62.991 74.3412 62.4543 74.3412C62.1043 74.3412 61.8126 74.4171 61.5793 74.5687C61.3926 74.6854 61.1768 74.9012 60.9318 75.2162C60.8268 75.3446 60.7335 75.4087 60.6518 75.4087C60.5701 75.4087 60.471 75.3387 60.3543 75.1987C60.2376 75.0587 60.1793 74.9362 60.1793 74.8312C60.1793 74.7496 60.2435 74.6912 60.3718 74.6562C61.8068 74.2596 62.5243 73.2796 62.5243 71.7162C62.5243 71.3079 62.4543 70.8762 62.3143 70.4212H60.6868C60.4651 70.4212 60.3543 70.3512 60.3543 70.2112C60.3543 70.0596 60.4768 69.9837 60.7218 69.9837H62.1568C61.8301 68.7471 61.6668 67.8137 61.6668 67.1837C61.6668 66.0637 61.976 65.1654 62.5943 64.4887C63.2243 63.8121 64.0526 63.4737 65.0793 63.4737C65.9426 63.4737 66.6426 63.7071 67.1793 64.1737C67.7276 64.6287 68.0018 65.2237 68.0018 65.9587C68.0018 66.3554 67.891 66.6821 67.6693 66.9387C67.4476 67.1837 67.1676 67.3062 66.8293 67.3062C66.176 67.3062 65.8493 67.0029 65.8493 66.3962C65.8493 66.0812 65.9776 65.8362 66.2343 65.6612C66.386 65.5562 66.666 65.4862 67.0743 65.4512C67.2376 65.4512 67.3193 65.3812 67.3193 65.2412C67.3193 65.0312 67.1968 64.7921 66.9518 64.5237C66.6251 64.1621 66.141 63.9812 65.4993 63.9812C64.8226 63.9812 64.286 64.2321 63.8893 64.7337C63.4926 65.2237 63.2943 65.8829 63.2943 66.7112C63.2943 67.5279 63.4868 68.6187 63.8718 69.9837H66.7418C67.0218 69.9837 67.1618 70.0479 67.1618 70.1762C67.1618 70.3396 67.016 70.4212 66.7243 70.4212H63.9418V70.6312C63.9418 71.3429 63.7376 71.9671 63.3293 72.5037C62.921 72.9937 62.5068 73.4837 62.0868 73.9737C62.0751 73.9971 62.0693 74.0146 62.0693 74.0262C62.0693 74.0612 62.0868 74.0787 62.1218 74.0787C62.1685 74.0787 62.2385 74.0437 62.3318 73.9737C62.8918 73.5654 63.5043 73.3612 64.1693 73.3612C64.6243 73.3612 65.1726 73.4954 65.8143 73.7637C66.5376 74.0671 67.0276 74.2187 67.2843 74.2187C67.6693 74.2187 67.9376 73.9621 68.0893 73.4487C68.1243 73.3087 68.1535 73.0521 68.1768 72.6787C68.1885 72.4454 68.2643 72.3287 68.4043 72.3287C68.556 72.3287 68.6318 72.4571 68.6318 72.7137Z" fill="#FFDC00"/>
</svg>
