<svg width="130" height="130" viewBox="0 0 130 130" fill="none" xmlns="http://www.w3.org/2000/svg">
<path d="M65 130C100.899 130 130 100.899 130 65C130 29.1015 100.899 0 65 0C29.1015 0 0 29.1015 0 65C0 100.899 29.1015 130 65 130Z" fill="#9C56B8"/>
<path d="M130 65.1288C130 60.2201 129.452 55.4401 128.42 50.8434L100.696 23.0919L96.5385 24.3764L82.1796 10.4321L50.5954 16.4753L46.7982 29.3989L29.6914 40.3971L33.78 44.4997L32.5226 109.563L51.4812 128.54C55.9019 129.493 60.4885 130 65.1938 130C100.985 130 130 100.956 130 65.1288Z" fill="#8C4DA5"/>
<path d="M55.971 25.724H48.3732V10.4709H82.3946L82.4293 25.691L74.8314 25.7083L74.814 18.076H55.971V25.724Z" fill="#8D8A94"/>
<path d="M82.428 25.6911L74.8302 25.7088L74.8251 23.1357L74.815 18.0756H65.4012V10.4702H82.3951L82.423 23.1357L82.428 25.6911Z" fill="#57545C"/>
<path d="M40.3461 109.527H90.4561V117.132H40.3461L40.3461 109.527Z" fill="#CAC7CD"/>
<path d="M65.4012 109.527H90.4564V117.133H65.4012V109.527Z" fill="#8D8A94"/>
<path d="M32.7158 37.8206H98.0867V109.643H32.7158L32.7158 37.8206Z" fill="white"/>
<path d="M65.4012 37.8215H98.0872V109.644H65.4012V37.8215Z" fill="#CAC7CD"/>
<path d="M46.4464 98.5871C43.1532 98.5871 40.4836 95.9148 40.4836 92.6184V57.83C40.4836 54.5336 43.1532 51.8613 46.4464 51.8613C49.7395 51.8613 52.4092 54.5336 52.4092 57.83V92.6186C52.4092 95.9148 49.7395 98.5871 46.4464 98.5871Z" fill="#CAC7CD"/>
<path d="M65.4012 98.5871C62.1081 98.5871 59.4384 95.9148 59.4384 92.6184V57.83C59.4384 54.5336 62.1081 51.8613 65.4012 51.8613C68.6944 51.8613 71.364 54.5336 71.364 57.83V92.6186C71.364 95.9148 68.6944 98.5871 65.4012 98.5871V98.5871Z" fill="#CAC7CD"/>
<path d="M71.363 57.6597V92.4491C71.363 95.9138 68.6936 98.5883 65.4012 98.5883V51.8611C67.0474 51.8611 68.5366 52.5304 69.6155 53.6103C70.6944 54.6903 71.363 56.1809 71.363 57.6597V57.6597Z" fill="#8D8A94"/>
<path d="M84.3561 98.5871C81.0629 98.5871 78.3933 95.9148 78.3933 92.6184V57.83C78.3933 54.5336 81.0629 51.8613 84.3561 51.8613C87.6492 51.8613 90.3189 54.5336 90.3189 57.83V92.6186C90.3189 95.9148 87.6492 98.5871 84.3561 98.5871Z" fill="#8D8A94"/>
<path d="M29.8831 23.1357H100.919V40.4481H29.8831V23.1357Z" fill="#CAC7CD"/>
<path d="M65.4012 23.1355H100.919V40.4478H65.4012V23.1355Z" fill="#8D8A94"/>
</svg>
