<svg width="139" height="37" viewBox="0 0 139 37" fill="none" xmlns="http://www.w3.org/2000/svg">
<path fill-rule="evenodd" clip-rule="evenodd" d="M12.6791 16.6098C11.8678 16.6098 11.1656 16.745 10.5747 17.0138C9.9826 17.2837 9.50068 17.6287 9.12892 18.049C8.75636 18.4701 8.47754 18.941 8.29246 19.4626C8.10618 19.9846 7.99562 20.5145 7.96237 21.0525L16.6354 19.6388C16.5341 18.9661 16.1615 18.2934 15.5193 17.6195C14.8768 16.9468 13.9297 16.6098 12.6791 16.6098M14.0996 36.45C12.1038 36.45 10.2526 36.1729 8.54605 35.6178C6.83828 35.0619 5.35084 34.2293 4.08294 33.1183C2.81503 32.0078 1.81713 30.6113 1.09044 28.9285C0.362945 27.2457 0 25.2766 0 23.0216C0 20.8001 0.362945 18.8908 1.09044 17.2917C1.81713 15.6935 2.77177 14.3811 3.95635 13.3535C5.13892 12.3275 6.49216 11.5702 8.01365 11.0817C9.53473 10.5948 11.0899 10.35 12.6791 10.35C14.471 10.35 16.1022 10.62 17.5732 11.1579C19.0446 11.6966 20.3125 12.4371 21.3773 13.379C22.4421 14.3217 23.2702 15.4486 23.8627 16.7614C24.4536 18.0741 24.75 19.5049 24.75 21.0525C24.75 22.1973 24.4283 23.0718 23.7862 23.6779C23.1436 24.2837 22.2474 24.6713 21.0985 24.8388L8.57128 26.707C8.94264 27.8175 9.70338 28.6506 10.8535 29.2056C12.0024 29.7611 13.3208 30.0391 14.8091 30.0391C16.1955 30.0391 17.5051 29.862 18.7398 29.5087C19.9736 29.1554 20.9795 28.7435 21.7575 28.2721C22.2979 28.6087 22.7546 29.0796 23.1272 29.6857C23.4985 30.2915 23.6848 30.9311 23.6848 31.6038C23.6848 33.1183 22.9749 34.2464 21.5544 34.9865C20.4724 35.5588 19.2549 35.9452 17.9033 36.1477C16.5501 36.3495 15.2822 36.45 14.0996 36.45" fill="white"/>
<path fill-rule="evenodd" clip-rule="evenodd" d="M41.48 17.3068C39.7019 17.3068 38.3346 17.8223 37.3798 18.852C36.4242 19.8829 35.947 21.4447 35.947 23.5384C35.947 25.5994 36.3918 27.1529 37.2811 28.1995C38.1704 29.2466 39.4549 29.7699 41.1343 29.7699C41.727 29.7699 42.262 29.679 42.7396 29.4963C43.2168 29.3135 43.5871 29.1056 43.8513 28.8729V17.9054C43.1922 17.5061 42.4013 17.3068 41.48 17.3068M27.45 23.5384C27.45 21.3446 27.7793 19.4427 28.4384 17.8302C29.0966 16.2188 30.0109 14.8808 31.1803 13.8172C32.349 12.7536 33.7158 11.9648 35.2805 11.449C36.8441 10.9339 38.5325 10.6764 40.3438 10.6764C41.0024 10.6764 41.6443 10.7351 42.2702 10.8508C42.8953 10.9674 43.4068 11.1088 43.8021 11.2741V3.19852C44.1303 3.0985 44.6578 2.991 45.3828 2.87444C46.1062 2.75828 46.8476 2.7 47.6058 2.7C48.3296 2.7 48.9805 2.74961 49.5568 2.84963C50.1327 2.94926 50.6189 3.14812 51.0142 3.44778C51.4091 3.74666 51.706 4.15422 51.9031 4.66889C52.1009 5.18474 52.2 5.85771 52.2 6.68819V30.3181C52.2 31.881 51.475 33.1273 50.0262 34.0574C49.0706 34.6894 47.8356 35.2462 46.3212 35.7278C44.8057 36.2086 43.0611 36.45 41.0848 36.45C38.9437 36.45 37.0251 36.1511 35.3297 35.553C33.6331 34.9544 32.2007 34.0909 31.0316 32.9603C29.8622 31.831 28.9733 30.4764 28.3646 28.8977C27.7547 27.3194 27.45 25.5325 27.45 23.5384" fill="white"/>
<path fill-rule="evenodd" clip-rule="evenodd" d="M65.7625 35.9939C65.407 36.0612 64.8834 36.1537 64.1898 36.2726C63.4961 36.3907 62.7944 36.45 62.0851 36.45C61.3754 36.45 60.7383 36.3995 60.1738 36.2978C59.6093 36.1965 59.1339 35.9939 58.7467 35.6896C58.3596 35.3856 58.0611 34.972 57.8517 34.4474C57.6411 33.9241 57.5371 33.2393 57.5371 32.3944V11.7608C57.8918 11.6935 58.4158 11.601 59.1094 11.4825C59.8031 11.3643 60.5044 11.3051 61.2145 11.3051C61.9238 11.3051 62.5605 11.3555 63.1258 11.4572C63.6895 11.5586 64.1657 11.7608 64.5529 12.0655C64.9404 12.3694 65.2377 12.7839 65.4483 13.3077C65.6574 13.8318 65.7625 14.5162 65.7625 15.3607V35.9939ZM57.15 4.56256C57.15 3.27836 57.5616 2.19719 58.3837 1.31783C59.2065 0.439678 60.295 0 61.6498 0C63.005 0 64.0935 0.439678 64.9155 1.31783C65.7384 2.19719 66.15 3.27836 66.15 4.56256C66.15 5.84715 65.7384 6.92873 64.9155 7.80688C64.0935 8.68624 63.005 9.12511 61.6498 9.12511C60.295 9.12511 59.2065 8.68624 58.3837 7.80688C57.5616 6.92873 57.15 5.84715 57.15 4.56256V4.56256Z" fill="white"/>
<path fill-rule="evenodd" clip-rule="evenodd" d="M83.018 29.77C84.5204 29.77 85.6891 29.2467 86.5226 28.1996C87.3556 27.153 87.7722 25.5992 87.7722 23.5385C87.7722 21.4444 87.3471 19.8827 86.4982 18.8522C85.6481 17.8225 84.5045 17.3071 83.0671 17.3071C82.4133 17.3071 81.8497 17.3736 81.3762 17.5059C80.902 17.6394 80.3875 17.839 79.8324 18.1044V28.9722C80.1916 29.2053 80.6244 29.3963 81.1312 29.5456C81.6371 29.6952 82.2662 29.77 83.018 29.77V29.77ZM71.55 3.19852C71.876 3.09889 72.399 2.99139 73.1178 2.87444C73.8363 2.75867 74.5715 2.7 75.3236 2.7C76.0417 2.7 76.6874 2.74961 77.2596 2.84963C77.831 2.94965 78.3133 3.14851 78.7051 3.44777C79.0973 3.74704 79.3915 4.15421 79.5873 4.66887C79.7836 5.18511 79.8816 5.85767 79.8816 6.68854V11.5741C80.6976 11.2417 81.4745 11.009 82.2097 10.8759C82.9448 10.7432 83.7531 10.6767 84.6354 10.6767C86.2036 10.6767 87.6901 10.959 89.0954 11.5237C90.4998 12.0895 91.7417 12.9121 92.8198 13.9915C93.8983 15.0716 94.7473 16.4096 95.3686 18.0044C95.9888 19.6 96.3 21.4444 96.3 23.5385C96.3 25.6992 95.981 27.585 95.3442 29.1963C94.707 30.8092 93.8166 32.1464 92.6731 33.2096C91.5292 34.274 90.1321 35.0789 88.4829 35.6278C86.8326 36.1759 85.0105 36.45 83.018 36.45C80.8617 36.45 79.0318 36.1925 77.5287 35.6774C76.0259 35.1627 74.7515 34.5229 73.7063 33.7582C72.2677 32.7284 71.55 31.3987 71.55 29.77V3.19852Z" fill="white"/>
<path fill-rule="evenodd" clip-rule="evenodd" d="M110.7 36.0082C110.311 36.0734 109.738 36.163 108.979 36.2782C108.22 36.3926 107.452 36.45 106.676 36.45C105.9 36.45 105.202 36.4011 104.585 36.3026C103.967 36.2045 103.447 36.0082 103.024 35.7135C102.6 35.4191 102.273 35.0184 102.044 34.5103C101.814 34.0034 101.7 33.3402 101.7 32.5218V4.04178C102.088 3.97662 102.661 3.88663 103.42 3.77183C104.179 3.65741 104.947 3.60001 105.723 3.60001C106.499 3.60001 107.197 3.64888 107.815 3.74739C108.432 3.84552 108.953 4.04178 109.376 4.33655C109.8 4.63093 110.126 5.03236 110.355 5.53929C110.585 6.04739 110.7 6.71024 110.7 7.52823V36.0082Z" fill="white"/>
<path fill-rule="evenodd" clip-rule="evenodd" d="M121.973 21.0523C122.012 20.5172 122.11 19.992 122.295 19.4672C122.471 18.9421 122.745 18.4775 123.097 18.0536C123.459 17.6298 123.918 17.2864 124.495 17.0137C125.062 16.7513 125.736 16.6097 126.518 16.6097C127.73 16.6097 128.639 16.9531 129.255 17.6194C129.881 18.2961 130.233 18.9724 130.33 19.6391L121.973 21.0523ZM137.222 23.6773C137.847 23.0716 138.15 22.2035 138.15 21.0523C138.15 20.0933 138.042 19.1845 137.827 18.316C137.544 18.5182 137.192 18.6191 136.831 18.5784C136.283 18.5182 135.833 18.1749 135.628 17.69C134.934 18.1143 134.025 17.9627 133.507 17.2964C133.302 17.0236 133.175 16.7006 133.145 16.3777C132.686 16.3573 132.236 16.1352 131.924 15.7416C131.493 15.1961 131.444 14.4493 131.748 13.8635C131.405 13.5405 131.21 13.066 131.259 12.5512C131.308 12.0866 131.543 11.6926 131.894 11.4402C131.679 11.3294 131.464 11.2484 131.239 11.1575C129.822 10.6224 128.248 10.35 126.518 10.35C124.993 10.35 123.488 10.602 122.022 11.0869C120.555 11.5718 119.256 12.329 118.112 13.3586C116.978 14.3886 116.05 15.7014 115.355 17.2964C114.652 18.8918 114.3 20.7999 114.3 23.021C114.3 25.2827 114.652 27.2518 115.355 28.9278C116.05 30.6142 117.017 32.0074 118.239 33.118C119.461 34.2285 120.888 35.0667 122.54 35.6222C124.182 36.1773 125.971 36.45 127.886 36.45C129.03 36.45 130.252 36.3491 131.552 36.1469C132.862 35.9452 134.035 35.5616 135.071 34.9858C136.439 34.2489 137.124 33.118 137.124 31.6035C137.124 30.9372 136.948 30.2908 136.586 29.6851C136.234 29.0793 135.794 28.6148 135.267 28.2715C134.524 28.746 133.546 29.1603 132.364 29.5136C131.171 29.8669 129.91 30.0384 128.571 30.0384C127.144 30.0384 125.873 29.766 124.759 29.2105C123.654 28.6551 122.921 27.8173 122.559 26.7067L134.631 24.8385C135.745 24.677 136.605 24.2835 137.222 23.6773V23.6773Z" fill="white"/>
</svg>
